name C:\Users\u0101727\Documents\MyRepositories\upper-imu-dc\OpenSim\subject0\MA\MA_Splines\angle_in_n6_dof6_0.mot
datacolumns 7
datarows 27
range 0.01000000 0.27000000
endheader 
time	clav_prot	clav_elev	scapula_abduction	scapula_elevation	scapula_upward_rot	scapula_winging	
          0.01000000	        -49.02793530	         -7.65248351	        -37.40470623	         -7.82036939	          8.23102828	        -16.84364364	
          0.02000000	        -42.60353533	         -7.65248351	        -37.40470623	         -7.82036939	          8.23102828	        -16.84364364	
          0.03000000	        -36.17913537	         -7.65248351	        -37.40470623	         -7.82036939	          8.23102828	        -16.84364364	
          0.04000000	        -29.75473540	         -7.65248351	        -37.40470623	         -7.82036939	          8.23102828	        -16.84364364	
          0.05000000	        -23.33033544	         -7.65248351	        -37.40470623	         -7.82036939	          8.23102828	        -16.84364364	
          0.06000000	        -16.90593547	         -7.65248351	        -37.40470623	         -7.82036939	          8.23102828	        -16.84364364	
          0.07000000	        -49.02793530	         -2.74924671	        -37.40470623	         -7.82036939	          8.23102828	        -16.84364364	
          0.08000000	        -42.60353533	         -2.74924671	        -37.40470623	         -7.82036939	          8.23102828	        -16.84364364	
          0.09000000	        -36.17913537	         -2.74924671	        -37.40470623	         -7.82036939	          8.23102828	        -16.84364364	
          0.10000000	        -29.75473540	         -2.74924671	        -37.40470623	         -7.82036939	          8.23102828	        -16.84364364	
          0.11000000	        -23.33033544	         -2.74924671	        -37.40470623	         -7.82036939	          8.23102828	        -16.84364364	
          0.12000000	        -16.90593547	         -2.74924671	        -37.40470623	         -7.82036939	          8.23102828	        -16.84364364	
          0.13000000	        -49.02793530	          2.15399008	        -37.40470623	         -7.82036939	          8.23102828	        -16.84364364	
          0.14000000	        -42.60353533	          2.15399008	        -37.40470623	         -7.82036939	          8.23102828	        -16.84364364	
          0.15000000	        -36.17913537	          2.15399008	        -37.40470623	         -7.82036939	          8.23102828	        -16.84364364	
          0.16000000	        -29.75473540	          2.15399008	        -37.40470623	         -7.82036939	          8.23102828	        -16.84364364	
          0.17000000	        -23.33033544	          2.15399008	        -37.40470623	         -7.82036939	          8.23102828	        -16.84364364	
          0.18000000	        -16.90593547	          2.15399008	        -37.40470623	         -7.82036939	          8.23102828	        -16.84364364	
          0.19000000	        -49.02793530	          7.05722688	        -37.40470623	         -7.82036939	          8.23102828	        -16.84364364	
          0.20000000	        -42.60353533	          7.05722688	        -37.40470623	         -7.82036939	          8.23102828	        -16.84364364	
          0.21000000	        -36.17913537	          7.05722688	        -37.40470623	         -7.82036939	          8.23102828	        -16.84364364	
          0.22000000	        -29.75473540	          7.05722688	        -37.40470623	         -7.82036939	          8.23102828	        -16.84364364	
          0.23000000	        -23.33033544	          7.05722688	        -37.40470623	         -7.82036939	          8.23102828	        -16.84364364	
          0.24000000	        -16.90593547	          7.05722688	        -37.40470623	         -7.82036939	          8.23102828	        -16.84364364	
          0.25000000	        -49.02793530	         11.96046367	        -37.40470623	         -7.82036939	          8.23102828	        -16.84364364	
          0.26000000	        -42.60353533	         11.96046367	        -37.40470623	         -7.82036939	          8.23102828	        -16.84364364	
          0.27000000	        -36.17913537	         11.96046367	        -37.40470623	         -7.82036939	          8.23102828	        -16.84364364	
